# xmcd
#
# Track frame offsets: 
#        150
#        20098
#        42999
#        68596
#        82998
#        100956
#        128987
#        149863
#        167966
#        189727
#        209145
#        226106
#        249189
#
# Disc length: 3585 seconds
#
# Revision: 9
# Processed by: cddbd v1.5.2PL0 Copyright (c) Steve Scherf et al.
# Submitted via: ExactAudioCopy v0.99pb1
#
DISCID=be0dff0d
DTITLE=Chris Botti - To Love Again
DYEAR=2006
DGENRE=Jazz
TTITLE0=Embraceable You
TTITLE1=What Are You Doing the Rest of Your Life (with Sting)
TTITLE2=My One and Only Love (with Paula Cole)
TTITLE3=Let There Be Love (with Michael Buble)
TTITLE4=What's New
TTITLE5=Good Morning Heartache (with Jill Scott)
TTITLE6=To Love Again
TTITLE7=Are You Lonesome Tonight (with Paul Buchanan)
TTITLE8=Lover Man (with Gladys Knight)
TTITLE9=I'll Be Seeing You
TTITLE10=Pennies from Heaven (with Renee Olstead)
TTITLE11=Here's That Rainy Day (with Rosa Passos)
TTITLE12=Smile (with Steven Tyler)
EXTD=YEAR: 2005
EXTT0=
EXTT1=
EXTT2=
EXTT3=
EXTT4=
EXTT5=
EXTT6=
EXTT7=
EXTT8=
EXTT9=
EXTT10=
EXTT11=
EXTT12=
PLAYORDER=
